<?xml version="1.0" encoding="UTF-8" standalone="no"?>
<svg width="40px" height="40px" viewBox="0 0 40 40" version="1.1" xmlns="http://www.w3.org/2000/svg" xmlns:xlink="http://www.w3.org/1999/xlink">
    <!-- Generator: Sketch 3.6.1 (26313) - http://www.bohemiancoding.com/sketch -->
    <title>Group 4</title>
    <desc>Created with Sketch.</desc>
    <defs></defs>
    <g id="Page-1" stroke="none" stroke-width="1" fill="none" fill-rule="evenodd">
        <g id="Desktop-HD" transform="translate(-336.000000, -774.000000)">
            <g id="Group-4" transform="translate(336.000000, 774.000000)">
                <circle id="Oval-7" fill="#03A9F4" cx="20" cy="20" r="20"></circle>
                <g id="group" transform="translate(9.090909, 11.818182)" fill="#FFFFFF">
                    <path d="M14.8760331,5.95041322 C16.5619835,5.95041322 17.8512397,4.66115702 17.8512397,2.97520661 C17.8512397,1.2892562 16.5619835,0 14.8760331,0 C13.1900826,0 11.9008264,1.2892562 11.9008264,2.97520661 C11.9008264,4.66115702 13.1900826,5.95041322 14.8760331,5.95041322 L14.8760331,5.95041322 Z M6.94214876,5.95041322 C8.62809917,5.95041322 9.91735537,4.66115702 9.91735537,2.97520661 C9.91735537,1.2892562 8.62809917,0 6.94214876,0 C5.25619835,0 3.96694215,1.2892562 3.96694215,2.97520661 C3.96694215,4.66115702 5.25619835,5.95041322 6.94214876,5.95041322 L6.94214876,5.95041322 Z M6.94214876,7.9338843 C4.66115702,7.9338843 0,9.12396694 0,11.4049587 L0,13.8842975 L13.8842975,13.8842975 L13.8842975,11.4049587 C13.8842975,9.12396694 9.2231405,7.9338843 6.94214876,7.9338843 L6.94214876,7.9338843 Z M14.8760331,7.9338843 C14.5785124,7.9338843 14.2809917,7.9338843 13.8842975,8.03305785 C15.0743802,8.82644628 15.8677686,10.0165289 15.8677686,11.4049587 L15.8677686,13.8842975 L21.8181818,13.8842975 L21.8181818,11.4049587 C21.8181818,9.12396694 17.1570248,7.9338843 14.8760331,7.9338843 L14.8760331,7.9338843 Z" id="Shape"></path>
                </g>
            </g>
        </g>
    </g>
</svg>