<?xml version="1.0" encoding="UTF-8" standalone="no"?>
<svg width="58px" height="58px" viewBox="0 0 58 58" version="1.1" xmlns="http://www.w3.org/2000/svg" xmlns:xlink="http://www.w3.org/1999/xlink">
    <!-- Generator: Sketch 3.6.1 (26313) - http://www.bohemiancoding.com/sketch -->
    <title>Group</title>
    <desc>Created with Sketch.</desc>
    <defs></defs>
    <g id="Page-1" stroke="none" stroke-width="1" fill="none" fill-rule="evenodd">
        <g id="Desktop-HD" transform="translate(-326.000000, -316.000000)">
            <g id="Group" transform="translate(326.000000, 316.000000)">
                <ellipse id="Oval-5" fill="#D8D8D8" cx="28.8898208" cy="28.7609375" rx="28.8898208" ry="28.7609375"></ellipse>
                <g id="person" transform="translate(17.568134, 17.489759)" fill="#FFFFFF">
                    <path d="M11.3216865,11.2711782 C14.4351503,11.2711782 16.9825298,8.73516311 16.9825298,5.6355891 C16.9825298,2.5360151 14.4351503,0 11.3216865,0 C8.20822273,0 5.66084326,2.5360151 5.66084326,5.6355891 C5.66084326,8.73516311 8.20822273,11.2711782 11.3216865,11.2711782 L11.3216865,11.2711782 Z M11.3216865,14.0889728 C7.50061732,14.0889728 0,15.9205392 0,19.7245619 L0,22.5423564 L22.643373,22.5423564 L22.643373,19.7245619 C22.643373,15.9205392 15.1427557,14.0889728 11.3216865,14.0889728 L11.3216865,14.0889728 Z" id="Shape"></path>
                </g>
            </g>
        </g>
    </g>
</svg>