<?xml version="1.0" encoding="UTF-8" standalone="no"?>
<svg width="60px" height="59px" viewBox="0 0 60 59" version="1.1" xmlns="http://www.w3.org/2000/svg" xmlns:xlink="http://www.w3.org/1999/xlink">
    <!-- Generator: Sketch 3.6.1 (26313) - http://www.bohemiancoding.com/sketch -->
    <title>Group 2</title>
    <desc>Created with Sketch.</desc>
    <defs></defs>
    <g id="Page-1" stroke="none" stroke-width="1" fill="none" fill-rule="evenodd">
        <g id="Desktop-HD" transform="translate(-421.000000, -316.000000)">
            <g id="Group-2" transform="translate(421.692096, 316.000000)">
                <ellipse id="Oval-5-Copy" fill="#D8D8D8" cx="29.2555147" cy="29.125" rx="29.2555147" ry="29.125"></ellipse>
                <g id="domain" transform="translate(17.790516, 18.498311)" fill="#FFFFFF">
                    <path d="M11.6626714,4.63551051 L11.6626714,0 L0,0 L0,20.8597973 L23.3253428,20.8597973 L23.3253428,4.63551051 L11.6626714,4.63551051 L11.6626714,4.63551051 Z M4.66506856,18.542042 L2.33253428,18.542042 L2.33253428,16.2242868 L4.66506856,16.2242868 L4.66506856,18.542042 L4.66506856,18.542042 Z M4.66506856,13.9065315 L2.33253428,13.9065315 L2.33253428,11.5887763 L4.66506856,11.5887763 L4.66506856,13.9065315 L4.66506856,13.9065315 Z M4.66506856,9.27102102 L2.33253428,9.27102102 L2.33253428,6.95326577 L4.66506856,6.95326577 L4.66506856,9.27102102 L4.66506856,9.27102102 Z M4.66506856,4.63551051 L2.33253428,4.63551051 L2.33253428,2.31775526 L4.66506856,2.31775526 L4.66506856,4.63551051 L4.66506856,4.63551051 Z M9.33013712,18.542042 L6.99760284,18.542042 L6.99760284,16.2242868 L9.33013712,16.2242868 L9.33013712,18.542042 L9.33013712,18.542042 Z M9.33013712,13.9065315 L6.99760284,13.9065315 L6.99760284,11.5887763 L9.33013712,11.5887763 L9.33013712,13.9065315 L9.33013712,13.9065315 Z M9.33013712,9.27102102 L6.99760284,9.27102102 L6.99760284,6.95326577 L9.33013712,6.95326577 L9.33013712,9.27102102 L9.33013712,9.27102102 Z M9.33013712,4.63551051 L6.99760284,4.63551051 L6.99760284,2.31775526 L9.33013712,2.31775526 L9.33013712,4.63551051 L9.33013712,4.63551051 Z M20.9928085,18.542042 L11.6626714,18.542042 L11.6626714,16.2242868 L13.9952057,16.2242868 L13.9952057,13.9065315 L11.6626714,13.9065315 L11.6626714,11.5887763 L13.9952057,11.5887763 L13.9952057,9.27102102 L11.6626714,9.27102102 L11.6626714,6.95326577 L20.9928085,6.95326577 L20.9928085,18.542042 L20.9928085,18.542042 Z M18.6602742,9.27102102 L16.32774,9.27102102 L16.32774,11.5887763 L18.6602742,11.5887763 L18.6602742,9.27102102 L18.6602742,9.27102102 Z M18.6602742,13.9065315 L16.32774,13.9065315 L16.32774,16.2242868 L18.6602742,16.2242868 L18.6602742,13.9065315 L18.6602742,13.9065315 Z" id="Shape"></path>
                </g>
            </g>
        </g>
    </g>
</svg>